<?xml version="1.0" standalone="no"?>
<!DOCTYPE svg PUBLIC "-//W3C//DTD SVG 20010904//EN"
 "http://www.w3.org/TR/2001/REC-SVG-20010904/DTD/svg10.dtd">
<svg version="1.0" xmlns="http://www.w3.org/2000/svg"
 width="260.000000pt" height="260.000000pt" viewBox="0 0 260.000000 260.000000"
 preserveAspectRatio="xMidYMid meet">
<metadata>
Created by potrace 1.14, written by Peter Selinger 2001-2017
</metadata>
<g transform="translate(0.000000,260.000000) scale(0.100000,-0.100000)"
fill="#000000" stroke="none">
<path d="M166 2054 l-26 -27 0 -604 c0 -395 4 -611 10 -624 6 -10 24 -26 40
-34 l30 -16 0 -104 c0 -58 4 -105 9 -105 5 0 11 -10 13 -22 2 -15 11 -24 26
-26 13 -2 26 -10 29 -18 8 -21 1998 -21 2006 0 3 8 16 16 29 18 15 2 24 11 26
26 2 12 8 22 13 22 5 0 9 47 9 105 l0 104 30 16 c16 8 34 24 40 34 6 13 10
229 10 626 l0 606 -25 24 -24 25 -1109 0 -1109 0 -27 -26z m1744 -164 c22 -11
40 -23 40 -27 0 -7 -70 -124 -95 -158 -14 -20 -13 -20 93 -17 59 2 110 7 114
11 4 3 -13 20 -37 36 -25 17 -45 33 -45 37 0 3 16 16 35 28 39 24 30 28 117
-43 25 -22 67 -65 92 -97 l46 -59 -36 -27 -35 -27 -24 29 c-14 16 -24 32 -25
37 0 9 -80 9 -132 1 l-38 -7 0 -53 0 -54 105 0 105 0 0 -150 0 -150 -105 0
-105 0 0 -65 0 -66 63 7 c34 4 64 8 66 10 3 3 -8 17 -22 32 -15 16 -27 31 -27
33 0 3 19 12 42 19 42 12 43 12 70 -21 28 -33 98 -159 98 -176 0 -8 -62 -43
-75 -43 -3 0 -12 18 -21 40 l-16 40 -47 -5 c-72 -8 -399 -35 -430 -35 -22 0
-31 7 -45 36 -9 20 -14 39 -11 42 3 4 63 10 133 13 70 4 128 8 130 8 1 1 2 30
2 66 l0 65 -110 0 -110 0 0 150 0 150 110 0 110 0 0 56 c0 48 -2 55 -17 50
-10 -2 -61 -7 -114 -11 l-95 -7 -16 40 c-15 39 -15 40 6 46 11 3 33 6 48 6 33
0 80 58 129 160 19 38 35 70 37 70 1 0 21 -9 42 -20z m-1346 -50 c5 -5 4 -22
-2 -39 l-11 -31 67 0 c50 0 73 -5 92 -20 l25 -19 -33 -66 c-17 -36 -32 -68
-32 -70 0 -3 25 -5 55 -5 l55 0 0 40 0 40 44 0 c53 0 56 6 56 106 l0 74 40 0
40 0 0 -90 0 -90 86 0 87 0 -6 -217 c-3 -120 -11 -236 -16 -257 -15 -63 -49
-89 -121 -94 -69 -5 -78 0 -90 52 l-8 36 58 0 c40 0 61 5 71 16 9 11 14 66 17
195 l4 179 -40 0 -41 0 -5 -57 c-12 -113 -34 -210 -61 -266 -27 -59 -118 -167
-139 -166 -6 0 -21 13 -34 29 l-22 29 44 46 c25 25 57 70 71 99 27 54 54 179
55 249 l0 37 -45 0 -45 0 0 -145 0 -145 -90 0 c-53 0 -90 -4 -90 -10 0 -5 16
-10 35 -10 l35 0 0 -109 c0 -89 3 -111 17 -122 19 -17 299 -26 353 -12 35 9
37 12 57 90 l8 31 38 -15 c31 -13 37 -20 37 -44 0 -49 -30 -108 -64 -126 -39
-21 -339 -31 -431 -14 -88 16 -95 28 -95 170 l-1 116 -29 -70 c-32 -76 -90
-152 -158 -209 l-43 -35 -28 31 -28 31 72 71 c69 68 115 141 131 209 l6 27
-66 0 -66 0 0 100 c0 77 -3 98 -13 94 -7 -2 -25 9 -40 24 l-28 29 52 69 c49
64 129 216 129 244 0 13 68 5 84 -10z m1056 -140 l0 -160 -94 0 -93 0 -7 -37
c-3 -21 -6 -59 -6 -85 l0 -48 106 0 106 0 -7 -112 c-16 -276 -43 -328 -167
-328 -64 0 -83 12 -96 63 -12 41 -12 41 57 26 71 -15 86 -4 99 73 6 35 13 93
16 131 l5 67 -64 0 c-62 0 -64 -1 -67 -27 -3 -26 -6 -28 -43 -25 -22 2 -42 5
-44 7 -2 3 2 87 10 187 l14 183 93 3 92 3 0 79 0 80 -120 0 -120 0 0 40 0 40
165 0 165 0 0 -160z"/>
<path d="M1760 1350 l0 -70 65 0 65 0 0 70 0 70 -65 0 -65 0 0 -70z"/>
<path d="M1980 1350 l0 -70 60 0 60 0 0 70 0 70 -60 0 -60 0 0 -70z"/>
<path d="M495 1659 c-44 -69 -44 -69 19 -69 l56 0 25 50 c14 27 25 52 25 55 0
3 -22 5 -50 5 -47 0 -51 -2 -75 -41z"/>
<path d="M460 1440 l0 -70 35 0 c30 0 35 3 35 24 0 13 3 44 6 70 l7 46 -42 0
-41 0 0 -70z"/>
<path d="M620 1478 c0 -18 -3 -50 -6 -70 l-7 -38 47 0 46 0 0 70 0 70 -40 0
c-38 0 -40 -1 -40 -32z"/>
</g>
</svg>
